<svg width="169" height="102" viewBox="0 0 169 102" fill="none" xmlns="http://www.w3.org/2000/svg">
<path d="M82.12 55.48C84.0933 54.6 85.96 54.16 87.72 54.16C90.0133 54.16 91.1867 55.5067 91.24 58.2H87C84.84 58.2 83.0933 58.7333 81.76 59.8C80.4533 60.8667 79.8 62.3733 79.8 64.32C79.8 66.1867 80.3733 67.68 81.52 68.8C82.6933 69.92 84.4 70.48 86.64 70.48C87.6 70.48 88.56 70.2533 89.52 69.8C90.48 69.3467 91.3333 68.76 92.08 68.04L92.76 70H95.76V57.04C95.76 55.7333 95.4 54.56 94.68 53.52C93.96 52.4533 92.9733 51.6133 91.72 51C90.4933 50.3867 89.1333 50.08 87.64 50.08C86.7333 50.08 85.5467 50.2533 84.08 50.6C82.64 50.9467 81.5733 51.3467 80.88 51.8L82.12 55.48ZM83.72 64.32C83.72 63.44 84 62.7067 84.56 62.12C85.1467 61.5067 85.9333 61.2 86.92 61.2H91.28V64.68C90.6133 65.3733 89.8667 65.92 89.04 66.32C88.2133 66.72 87.3867 66.92 86.56 66.92C85.68 66.92 84.9867 66.6667 84.48 66.16C83.9733 65.6267 83.72 65.0133 83.72 64.32ZM104.722 57.64C105.789 56.68 106.962 55.8667 108.242 55.2C109.522 54.5333 110.642 54.2 111.602 54.2L110.682 50.6C109.749 50.6 108.655 50.9333 107.402 51.6C106.175 52.2667 105.082 53 104.122 53.8L102.642 50.6H100.242V70H104.722V57.64ZM122.984 50.08C124.958 50.08 126.678 50.5067 128.144 51.36C129.611 52.1867 130.731 53.3733 131.504 54.92C132.304 56.4667 132.704 58.28 132.704 60.36C132.704 62.36 132.304 64.1333 131.504 65.68C130.704 67.2 129.558 68.3867 128.064 69.24C126.598 70.0933 124.878 70.52 122.904 70.52C122.184 70.52 121.371 70.36 120.464 70.04C119.584 69.72 118.758 69.2933 117.984 68.76L117.064 70H114.704V42.2L119.184 41.76V51.12C120.491 50.4267 121.758 50.08 122.984 50.08ZM122.904 66.64C124.504 66.64 125.758 66.0533 126.664 64.88C127.598 63.7067 128.064 62.2 128.064 60.36C128.064 58.44 127.611 56.8933 126.704 55.72C125.798 54.52 124.531 53.92 122.904 53.92C122.211 53.92 121.558 54.0267 120.944 54.24C120.358 54.4533 119.771 54.7733 119.184 55.2V65.44C120.278 66.24 121.518 66.64 122.904 66.64ZM153.061 60.16C153.061 57.2267 152.328 54.8133 150.861 52.92C149.395 51.0267 147.235 50.08 144.381 50.08C142.435 50.08 140.741 50.5067 139.301 51.36C137.888 52.2133 136.795 53.4133 136.021 54.96C135.275 56.48 134.901 58.2533 134.901 60.28C134.901 63.4267 135.821 65.92 137.661 67.76C139.528 69.5733 142.221 70.48 145.741 70.48C148.355 70.48 150.741 69.7333 152.901 68.24L151.541 64.96C150.395 65.5467 149.408 65.9867 148.581 66.28C147.781 66.5467 146.861 66.68 145.821 66.68C142.088 66.68 140.021 64.9467 139.621 61.48H153.061V60.16ZM139.701 58.48C139.888 57.04 140.368 55.92 141.141 55.12C141.941 54.32 142.981 53.92 144.261 53.92C145.515 53.92 146.515 54.3067 147.261 55.08C148.008 55.8533 148.501 56.9867 148.741 58.48H139.701ZM160.933 57.64C161.999 56.68 163.173 55.8667 164.453 55.2C165.733 54.5333 166.853 54.2 167.813 54.2L166.893 50.6C165.959 50.6 164.866 50.9333 163.613 51.6C162.386 52.2667 161.293 53 160.333 53.8L158.853 50.6H156.453V70H160.933V57.64Z" fill="#99BAED"/>
<g clip-path="url(#clip0_1_2)">
<path d="M50.5803 7.77596C44.6236 8.29711 40.0962 13.5572 40.6169 19.5147L43.2968 50.1484L33.162 54.8737C29.7678 48.9758 22.3668 46.5553 16.0846 49.4851C9.45122 52.5796 6.58174 60.4629 9.67428 67.0972C12.768 73.73 20.6523 76.6014 27.2873 73.5077C31.8398 71.3847 34.6184 67.004 34.9143 62.3217L47.3265 56.5334L48.5196 70.1756C44.6133 72.7735 42.209 77.3699 42.6457 82.3737C43.2841 89.6663 49.7121 95.0584 57.003 94.4213C64.2956 93.7829 69.6885 87.3554 69.0511 80.0644C68.447 73.1595 62.6501 67.9606 55.8458 67.9691L54.8707 56.8295L82.7388 43.8339C88.1593 41.3067 90.4502 34.7553 87.9231 29.336L53.8559 45.2239L50.5803 7.77596ZM27.6756 64.9209C25.7785 68.2068 21.5764 69.3327 18.2905 67.4356C15.0045 65.5385 13.8787 61.3363 15.7758 58.0505C17.6733 54.7638 21.8749 53.6386 25.1609 55.5357C28.4468 57.4329 29.5732 61.6342 27.6756 64.9209ZM61.7886 84.616C59.8914 87.9019 55.6894 89.0279 52.4034 87.1307C49.1175 85.2336 47.9916 81.0315 49.8887 77.7456C51.7863 74.4589 55.9879 73.3337 59.2738 75.2308C62.5597 77.1279 63.6861 81.3293 61.7886 84.616Z" fill="#99BAED"/>
</g>
<defs>
<clipPath id="clip0_1_2">
<rect width="74.2244" height="74.2244" fill="white" transform="translate(0 64.2803) rotate(-60)"/>
</clipPath>
</defs>
</svg>
